<svg width="300" height="550" viewBox="0 0 300 550" fill="none" xmlns="http://www.w3.org/2000/svg">
<g clip-path="url(#clip0_118_284)">
<path d="M300 0H0V550H300V0Z" fill="#E98C79"/>
<path d="M0.00012207 228.415C48.5791 227.928 102.483 249.294 142.645 221.96C182.767 194.653 190.725 139.189 200.842 91.722C209.352 51.794 195.971 12.651 195.957 -28.174C195.94 -77.797 230.209 -134.018 200.749 -173.95C171.729 -213.286 110.134 -203.502 61.7051 -210.149C20.1261 -215.856 -21.9119 -223.463 -61.6509 -209.966C-100.506 -196.769 -131.183 -167.928 -156.857 -135.917C-181.802 -104.815 -199.037 -68.866 -206.268 -29.657C-213.71 10.7 -208.332 50.842 -198.652 90.721C-187.044 138.541 -184.936 196.803 -144.493 224.836C-104.078 252.85 -49.1729 228.907 0.00012207 228.415Z" fill="#E16045"/>
<path d="M300 790.133C344.854 788.15 386.088 766.786 422.013 739.856C456.153 714.264 481.152 679.635 499.063 640.909C517.041 602.038 525.161 560.508 524.768 517.683C524.328 469.739 526.5 417.122 496.663 379.591C466.55 341.713 415.853 322.891 367.555 319.93C323.447 317.226 287.91 351.973 245.441 364.188C202.638 376.499 145.737 357.42 117.488 391.853C89.1002 426.455 116.122 478.639 114.839 523.378C113.735 561.896 101.263 599.138 110.472 636.555C120.99 679.291 136.658 723.25 170.852 750.958C206.526 779.865 254.129 792.161 300 790.133Z" fill="#F2B8AD"/>
</g>
<defs>
<clipPath id="clip0_118_284">
<rect width="300" height="550" fill="white"/>
</clipPath>
</defs>
</svg>
