<svg width="36" height="36" viewBox="0 0 36 36" fill="none" xmlns="http://www.w3.org/2000/svg">
<path d="M32 8H26V4C26 1.791 24.209 0 22 0H14C11.791 0 10 1.791 10 4V8H4C1.791 8 0 9.791 0 12V32C0 34.209 1.791 36 4 36H32C34.209 36 36 34.209 36 32V12C36 9.791 34.209 8 32 8ZM12 6C12 4.896 12.896 4 14 4H22C23.104 4 24 4.896 24 6V8H12V6Z" fill="#9A4E1C"/>
<path d="M36 20C36 22.209 34.209 24 32 24H4C1.791 24 0 22.209 0 20V12C0 9.791 1.791 8 4 8H32C34.209 8 36 9.791 36 12V20Z" fill="#662113"/>
<path d="M36 18C36 20.209 34.209 22 32 22H4C1.791 22 0 20.209 0 18V12C0 9.791 1.791 8 4 8H32C34.209 8 36 9.791 36 12V18Z" fill="#9A4E1C"/>
<path d="M22 18C22 19.104 21.104 20 20 20H16C14.896 20 14 19.104 14 18C14 16.896 14.896 16 16 16H20C21.104 16 22 16.896 22 18Z" fill="#CCD6DD"/>
</svg>
