<svg width="36" height="36" viewBox="0 0 36 36" fill="none" xmlns="http://www.w3.org/2000/svg">
<path d="M36 27C36 29.209 34.209 31 32 31H4C1.791 31 0 29.209 0 27V9C0 6.791 1.791 5 4 5H32C34.209 5 36 6.791 36 9V27Z" fill="#CCD6DD"/>
<path d="M11.9501 17.636L0.637148 28.949C0.610148 28.977 0.600148 29.012 0.577148 29.04C0.917148 29.61 1.39115 30.083 1.96115 30.424C1.99015 30.401 2.02415 30.391 2.05115 30.364L13.3651 19.05C13.7551 18.659 13.7551 18.027 13.3651 17.636C12.9731 17.245 12.3411 17.245 11.9501 17.636ZM35.4231 29.04C35.4021 29.012 35.3901 28.977 35.3631 28.95L24.0511 17.636C23.6591 17.245 23.0271 17.245 22.6361 17.636C22.2451 18.028 22.2451 18.66 22.6361 19.05L33.9492 30.364C33.9752 30.39 34.0112 30.401 34.0392 30.424C34.6102 30.084 35.0831 29.61 35.4231 29.04Z" fill="#99AAB5"/>
<path d="M32 5H4C1.791 5 0 6.791 0 9V10.03L14.528 24.526C16.422 26.419 19.516 26.419 21.412 24.526L36 10.009V9C36 6.791 34.209 5 32 5Z" fill="#99AAB5"/>
<path d="M31.9998 5H3.99979C2.41179 5 1.05079 5.934 0.404785 7.275L15.1708 22.042C16.7328 23.604 19.2668 23.604 20.8278 22.042L35.5948 7.275C34.9488 5.934 33.5888 5 31.9998 5Z" fill="#E1E8ED"/>
</svg>
