<svg width="45" height="45" viewBox="0 0 45 45" fill="none" xmlns="http://www.w3.org/2000/svg">
<path d="M4.99996 45H40C42.5 45 44.6637 42.5 44.6637 40C44.6637 34.5562 38.8712 26.25 22.5 26.25C5.63496 26.25 0.241211 34.3238 0.241211 40C0.241211 42.5 2.49996 45 4.99996 45Z" fill="#77B255"/>
<path d="M14.1152 36.875C14.1152 36.875 15.3127 37.7088 16.5627 37.7088C19.3227 31.615 32.8127 28.3338 34.0627 28.3338C34.2502 28.3338 34.4752 28.3113 34.7027 28.275C33.8077 27.925 32.8252 27.6238 31.7902 27.3538C26.0077 27.4325 15.5015 32.25 14.1152 36.875V36.875Z" fill="#5C913B"/>
<path d="M15.625 41.25C20.1123 41.25 23.75 39.8509 23.75 38.125C23.75 36.3991 20.1123 35 15.625 35C11.1377 35 7.5 36.3991 7.5 38.125C7.5 39.8509 11.1377 41.25 15.625 41.25Z" fill="#292F33"/>
<path d="M12.5 5V37.5C12.5 38.1912 13.06 38.555 13.75 38.555C14.44 38.555 15 38.1912 15 37.5V5H12.5Z" fill="#FFAC33"/>
<path d="M12.5 3.75C12.5 1 14.6188 -0.493748 17.2087 0.431252L29.0412 4.6575C31.63 5.5825 31.63 7.09625 29.0412 8.02L17.2087 12.2463C14.6188 13.1725 12.5 11.6788 12.5 8.92875V3.75Z" fill="#DD2E44"/>
</svg>
