<svg width="68" height="39" viewBox="0 0 68 39" fill="none" xmlns="http://www.w3.org/2000/svg">
<g filter="url(#filter0_d_51_288)">
<rect x="4" y="2" width="60" height="31" rx="14" fill="#3C403D"/>
</g>
<circle cx="19.5" cy="17.5" r="14" fill="white" stroke="#FDD888"/>
<path d="M46.1111 6.38889C46.1111 6.38889 46.1111 5 47.5 5C48.8889 5 48.8889 6.38889 48.8889 6.38889V7.77778C48.8889 7.77778 48.8889 9.16667 47.5 9.16667C46.1111 9.16667 46.1111 7.77778 46.1111 7.77778V6.38889ZM58.6111 16.1111C58.6111 16.1111 60 16.1111 60 17.5C60 18.8889 58.6111 18.8889 58.6111 18.8889H57.2222C57.2222 18.8889 55.8333 18.8889 55.8333 17.5C55.8333 16.1111 57.2222 16.1111 57.2222 16.1111H58.6111ZM37.7778 16.1111C37.7778 16.1111 39.1667 16.1111 39.1667 17.5C39.1667 18.8889 37.7778 18.8889 37.7778 18.8889H36.3889C36.3889 18.8889 35 18.8889 35 17.5C35 16.1111 36.3889 16.1111 36.3889 16.1111H37.7778ZM41.334 10.0646C41.334 10.0646 42.316 11.0465 41.334 12.0285C40.3521 13.0104 39.3701 12.0285 39.3701 12.0285L38.3875 11.0472C38.3875 11.0472 37.4056 10.0653 38.3875 9.08264C39.3701 8.10069 40.3521 9.08264 40.3521 9.08264L41.334 10.0646ZM55.9174 24.6479C55.9174 24.6479 56.8993 25.6299 55.9174 26.6118C54.9354 27.5937 53.9535 26.6118 53.9535 26.6118L52.9715 25.6299C52.9715 25.6299 51.9896 24.6479 52.9715 23.666C53.9535 22.684 54.9354 23.666 54.9354 23.666L55.9174 24.6479ZM55.6306 12.0285C55.6306 12.0285 54.6486 13.0104 53.6667 12.0285C52.6847 11.0465 53.6667 10.0646 53.6667 10.0646L54.6486 9.08264C54.6486 9.08264 55.6306 8.10069 56.6125 9.08264C57.5944 10.0646 56.6125 11.0465 56.6125 11.0465L55.6306 12.0285ZM41.0472 26.6118C41.0472 26.6118 40.0653 27.5937 39.0833 26.6118C38.1014 25.6299 39.0833 24.6479 39.0833 24.6479L40.0653 23.666C40.0653 23.666 41.0472 22.684 42.0292 23.666C43.0111 24.6479 42.0292 25.6299 42.0292 25.6299L41.0472 26.6118ZM46.1111 27.2222C46.1111 27.2222 46.1111 25.8333 47.5 25.8333C48.8889 25.8333 48.8889 27.2222 48.8889 27.2222V28.6111C48.8889 28.6111 48.8889 30 47.5 30C46.1111 30 46.1111 28.6111 46.1111 28.6111V27.2222Z" fill="#FDD888"/>
<path d="M47.5 24.4444C51.3353 24.4444 54.4444 21.3353 54.4444 17.5C54.4444 13.6647 51.3353 10.5555 47.5 10.5555C43.6647 10.5555 40.5555 13.6647 40.5555 17.5C40.5555 21.3353 43.6647 24.4444 47.5 24.4444Z" fill="#FDD888"/>
<defs>
<filter id="filter0_d_51_288" x="0" y="0" width="68" height="39" filterUnits="userSpaceOnUse" color-interpolation-filters="sRGB">
<feFlood flood-opacity="0" result="BackgroundImageFix"/>
<feColorMatrix in="SourceAlpha" type="matrix" values="0 0 0 0 0 0 0 0 0 0 0 0 0 0 0 0 0 0 127 0" result="hardAlpha"/>
<feOffset dy="2"/>
<feGaussianBlur stdDeviation="2"/>
<feComposite in2="hardAlpha" operator="out"/>
<feColorMatrix type="matrix" values="0 0 0 0 0 0 0 0 0 0 0 0 0 0 0 0 0 0 0.15 0"/>
<feBlend mode="normal" in2="BackgroundImageFix" result="effect1_dropShadow_51_288"/>
<feBlend mode="normal" in="SourceGraphic" in2="effect1_dropShadow_51_288" result="shape"/>
</filter>
</defs>
</svg>
