<svg width="30" height="30" viewBox="0 0 30 30" fill="none" xmlns="http://www.w3.org/2000/svg">
<path d="M29.3516 27.9984C28.8124 26.2476 27.9307 22.9493 27.4141 21.6934C26.9966 20.6801 26.6066 19.6618 26.1274 19.1818C25.6482 18.7026 24.8332 18.7401 24.3416 19.2301C24.3416 19.2301 22.2841 20.6259 21.5466 21.5493C20.6232 22.2843 19.2257 24.3468 19.2257 24.3468C18.7341 24.8384 18.6966 25.6526 19.1757 26.1326C19.6557 26.6118 20.6741 27.0018 21.6882 27.4193C22.9432 27.9359 26.2424 28.8159 27.9932 29.3568C28.2924 29.4484 29.4432 28.2976 29.3516 27.9984Z" fill="#D99E82"/>
<path d="M11.369 4.42332C12.3282 5.38249 12.3282 6.93665 11.369 7.89582L7.89652 11.3692C6.93735 12.3275 5.38152 12.3275 4.42402 11.3692L0.950684 7.89582C-0.00764975 6.93665 -0.00764975 5.38249 0.950684 4.42332L4.42318 0.95082C5.38152 -0.00834635 6.93652 -0.00834635 7.89568 0.95082L11.369 4.42332Z" fill="#EA596E"/>
<path d="M26.1277 19.1816L22.6527 22.6566L19.1835 26.1274L6.16016 13.1049L13.106 6.15991L26.1277 19.1816Z" fill="#FFCC4D"/>
<path d="M26.7314 28.9692C26.7314 28.9692 28.9889 30.2101 29.5989 29.6001C30.2089 28.9901 28.9614 26.7375 28.9614 26.7375C28.9614 26.7375 26.8231 26.7775 26.7314 28.9692V28.9692Z" fill="#292F33"/>
<path d="M1.81934 8.76419L8.76517 1.81836L13.1052 6.15919L6.16017 13.105L1.81934 8.76419Z" fill="#CCD6DD"/>
<path d="M2.6875 9.63177L9.6325 2.68677L10.5008 3.5551L3.55583 10.5001L2.6875 9.63177ZM4.42333 11.3701L11.3692 4.42427L12.2375 5.2926L5.29167 12.2376L4.42333 11.3701Z" fill="#99AAB5"/>
</svg>
