<svg width="500" height="700" viewBox="0 0 500 700" fill="none" xmlns="http://www.w3.org/2000/svg">
<g clip-path="url(#clip0_117_274)">
<path d="M500 0H0V700H500V0Z" fill="#8CDC94"/>
<path d="M0 264.975C60.797 275.728 130.1 316.557 180.74 281.237C231.814 245.614 201.855 160.603 229.585 104.848C258.831 46.0459 350.478 15.8219 345.31 -49.6481C340.234 -113.956 252.59 -133.71 207.142 -179.489C165.693 -221.239 144.088 -283.444 90.069 -306.747C33.693 -331.067 -36.861 -337.912 -90.39 -307.839C-142.742 -278.427 -150.644 -208.144 -179.335 -155.394C-201.277 -115.052 -220.067 -76.1631 -239.125 -34.3811C-266.597 25.8459 -338.967 82.2319 -316.051 144.336C-293.712 204.875 -204.132 200.817 -143.846 223.829C-96.29 241.982 -50.125 256.11 0 264.975Z" fill="#5DCE68"/>
<path d="M500 987.255C557.335 987.025 621.337 994.26 666.022 958.335C710.093 922.904 716.703 859.498 727.864 804.062C737.022 758.573 722.879 714.09 724.531 667.717C726.655 608.093 764.499 546.864 738.948 492.95C712.568 437.286 652.717 396.319 591.748 387.534C532.34 378.974 480.27 422.292 425.963 447.854C380.051 469.464 336.842 492.126 298.622 525.505C255.023 563.581 193.331 597.531 188.523 655.216C183.689 713.219 250.566 749.933 275.536 802.509C299.966 853.948 289.15 923.484 333.119 959.672C377.552 996.242 442.453 987.486 500 987.255Z" fill="#BBEAC0"/>
</g>
<defs>
<clipPath id="clip0_117_274">
<rect width="500" height="700" fill="white"/>
</clipPath>
</defs>
</svg>
