<svg width="300" height="550" viewBox="0 0 300 550" fill="none" xmlns="http://www.w3.org/2000/svg">
<g clip-path="url(#clip0_118_279)">
<path d="M300 0H0V550H300V0Z" fill="#FDD888"/>
<path d="M-9.15527e-05 136.585C31.4529 141.87 65.0569 159.979 93.3439 145.246C121.623 130.517 131.006 94.4799 139.725 63.8099C147.539 36.3219 147.462 7.50095 140.371 -20.1821C133.786 -45.8871 113.405 -64.0491 100.968 -87.4891C83.9399 -119.583 87.3559 -169.325 53.8229 -183.305C21.3179 -196.857 -13.0381 -165.576 -43.3571 -147.66C-67.8421 -133.192 -83.7171 -110.059 -103.951 -90.0741C-126.249 -68.0501 -165.148 -55.3821 -168.348 -24.2051C-171.572 7.20294 -136.162 27.8909 -118.765 54.2379C-104.447 75.9219 -96.5051 102.131 -75.1511 116.937C-53.4331 131.996 -26.0631 132.206 -9.15527e-05 136.585Z" fill="#FCC347"/>
<path d="M300 787.784C343.281 776.524 355.34 718.822 393.322 695.212C432.259 671.008 500.075 691.744 520.516 650.706C540.719 610.146 488.311 568.569 478.431 524.346C469.621 484.913 487.138 440.62 465.899 406.248C443.642 370.228 402.531 350.899 362.583 336.862C321.078 322.278 272.589 303.862 233.849 324.71C194.873 345.685 201.986 406.519 172.24 439.295C141.327 473.357 75.034 471.901 60.62 515.582C46.646 557.93 88.043 597.773 106.557 638.342C125.077 678.924 133.905 726.249 169.206 753.52C205.609 781.643 255.481 799.366 300 787.784Z" fill="#FEEDC9"/>
</g>
<defs>
<clipPath id="clip0_118_279">
<rect width="300" height="550" fill="white"/>
</clipPath>
</defs>
</svg>
