<svg width="36" height="36" viewBox="0 0 36 36" fill="none" xmlns="http://www.w3.org/2000/svg">
<path d="M24 14H12C12 14 7 20 7 24C7 28 18 35 18 35C18 35 29 28 29 24C29 20 24 14 24 14Z" fill="#31373D"/>
<path d="M19.64 1.28C18.739 0.576 17.263 0.576 16.362 1.28L1.63901 12.776C0.738007 13.48 0.738007 14.632 1.63901 15.336L16.361 26.831C17.263 27.535 18.738 27.535 19.639 26.831L34.361 15.336C35.263 14.632 35.263 13.48 34.361 12.776L19.64 1.28Z" fill="#292F33"/>
<path d="M19.64 1.28C18.739 0.576 17.263 0.576 16.362 1.28L1.63901 12.776C0.738007 13.48 0.738007 14.632 1.63901 15.336L16.361 26.831C17.262 27.535 18.738 27.535 19.639 26.831L34.362 15.336C35.263 14.632 35.263 13.48 34.362 12.776L19.64 1.28Z" fill="#394146"/>
<path d="M8 25C8 25 6 27 6 28V34C6 34 6 36 8 36C10 36 10 34 10 34V28C10 27 8 25 8 25Z" fill="#FCAB40"/>
<path d="M8 29C9.65685 29 11 27.6569 11 26C11 24.3431 9.65685 23 8 23C6.34315 23 5 24.3431 5 26C5 27.6569 6.34315 29 8 29Z" fill="#FDD888"/>
<path d="M8.00101 27C7.44901 27 7.00101 26.553 7.00101 26V22.042C6.95901 21.408 7.18801 20.006 8.31801 19.158L17.34 11.248C17.756 10.883 18.388 10.925 18.751 11.341C19.115 11.756 19.073 12.388 18.658 12.752L9.57801 20.71C8.97401 21.166 9.00001 21.982 9.00001 21.99L9.00201 26C9.00201 26.553 8.55401 27 8.00101 27Z" fill="#FCAB40"/>
<path d="M18 16C19.6569 16 21 14.6569 21 13C21 11.3431 19.6569 10 18 10C16.3431 10 15 11.3431 15 13C15 14.6569 16.3431 16 18 16Z" fill="#31373D"/>
</svg>
