<svg width="45" height="45" viewBox="0 0 45 45" fill="none" xmlns="http://www.w3.org/2000/svg">
<path d="M36.25 13.825C36.25 21.8737 30 23.1237 30 30.625C30 34.4975 26.0963 34.8237 23.125 34.8237C20.5588 34.8237 14.8925 33.85 14.8925 30.6225C14.8925 23.125 8.75 21.875 8.75 13.825C8.75 6.28624 15.3563 0.174988 22.6038 0.174988C29.8538 0.174988 36.25 6.28624 36.25 13.825Z" fill="#FFD983"/>
<path d="M27.7085 40.625C27.7085 41.66 24.916 43.75 22.4998 43.75C20.0835 43.75 17.291 41.66 17.291 40.625C17.291 39.59 20.0823 40 22.4998 40C24.916 40 27.7085 39.59 27.7085 40.625Z" fill="#CCD6DD"/>
<path d="M28.3836 12.8663C27.8948 12.3775 27.1048 12.3775 26.6161 12.8663L22.4998 16.9825L18.3836 12.8663C17.8948 12.3775 17.1048 12.3775 16.6161 12.8663C16.1273 13.355 16.1273 14.145 16.6161 14.6338L21.2498 19.2675V32.5C21.2498 33.1913 21.8098 33.75 22.4998 33.75C23.1898 33.75 23.7498 33.1913 23.7498 32.5V19.2675L28.3836 14.6338C28.8723 14.145 28.8723 13.355 28.3836 12.8663Z" fill="#FFCC4D"/>
<path d="M30 38.75C30 40.13 28.88 41.25 27.5 41.25H17.5C16.12 41.25 15 40.13 15 38.75V31.25H30V38.75Z" fill="#99AAB5"/>
<path d="M14.9985 40C14.3985 40 13.8685 39.5663 13.7673 38.955C13.6535 38.275 14.1135 37.63 14.7948 37.5175L29.7948 35.0175C30.4748 34.895 31.1198 35.3638 31.2323 36.045C31.346 36.725 30.886 37.37 30.2048 37.4825L15.2048 39.9825C15.136 39.995 15.066 40 14.9985 40ZM14.9985 35C14.3985 35 13.8685 34.5663 13.7673 33.955C13.6535 33.275 14.1135 32.63 14.7948 32.5175L29.7948 30.0175C30.4748 29.8963 31.1198 30.3638 31.2323 31.045C31.346 31.725 30.886 32.37 30.2048 32.4825L15.2048 34.9825C15.136 34.995 15.066 35 14.9985 35Z" fill="#CCD6DD"/>
</svg>
